HIERARCHY
ROOT joint_0
{
	OFFSET 0.000000 0.000000 0.000000
	CHANNELS 6 Xposition Yposition Zposition Zrotation Yrotation Xrotation 
	JOINT joint_1
	{
		OFFSET 11.612000 -0.419000 106.198000
		CHANNELS 3 Zrotation Yrotation Xrotation
		JOINT joint_2
		{
			OFFSET -1.708000 -1.022000 97.564090
			CHANNELS 3 Zrotation Yrotation Xrotation
			JOINT joint_3
			{
				OFFSET -4.121000 -1.538000 97.375000
				CHANNELS 3 Zrotation Yrotation Xrotation
				JOINT joint_4
				{
					OFFSET 5.442000 -2.123000 132.795900
					CHANNELS 3 Zrotation Yrotation Xrotation
					JOINT joint_5
					{
						OFFSET 21.935000 0.195000 82.975100
						CHANNELS 3 Zrotation Yrotation Xrotation
						End Site
						{
							OFFSET 0.000000 0.000000 0.000000
						}
					}
				}
				JOINT joint_6
				{
					OFFSET 4.262000 -30.048000 73.899900
					CHANNELS 3 Zrotation Yrotation Xrotation
					JOINT joint_7
					{
						OFFSET 9.731000 -136.810010 -21.963010
						CHANNELS 3 Zrotation Yrotation Xrotation
						JOINT joint_8
						{
							OFFSET 33.360000 -35.709000 -267.597900
							CHANNELS 3 Zrotation Yrotation Xrotation
							JOINT joint_9
							{
								OFFSET 36.156000 -29.759000 -240.558040
								CHANNELS 3 Zrotation Yrotation Xrotation
								End Site
								{
									OFFSET 0.000000 0.000000 0.000000
								}
							}
						}
					}
				}
				JOINT joint_10
				{
					OFFSET 2.027000 27.734000 74.914920
					CHANNELS 3 Zrotation Yrotation Xrotation
					JOINT joint_11
					{
						OFFSET -5.183000 136.784000 -23.604980
						CHANNELS 3 Zrotation Yrotation Xrotation
						JOINT joint_12
						{
							OFFSET 29.806000 37.229000 -267.809940
							CHANNELS 3 Zrotation Yrotation Xrotation
							JOINT joint_13
							{
								OFFSET 36.890000 46.524990 -237.772030
								CHANNELS 3 Zrotation Yrotation Xrotation
								End Site
								{
									OFFSET 0.000000 0.000000 0.000000
								}
							}
						}
					}
				}
			}
		}
	}
	JOINT joint_14
	{
		OFFSET -7.290000 -102.873990 -124.314940
		CHANNELS 3 Zrotation Yrotation Xrotation
		JOINT joint_15
		{
			OFFSET -15.466000 -19.909010 -438.533020
			CHANNELS 3 Zrotation Yrotation Xrotation
			JOINT joint_16
			{
				OFFSET -26.899000 -18.922000 -464.797000
				CHANNELS 3 Zrotation Yrotation Xrotation
				JOINT joint_17
				{
					OFFSET 179.329000 -12.011000 -84.174000
					CHANNELS 3 Zrotation Yrotation Xrotation
					End Site
					{
						OFFSET 0.000000 0.000000 0.000000
					}
				}
			}
		}
	}
	JOINT joint_18
	{
		OFFSET -6.225000 101.546000 -125.479980
		CHANNELS 3 Zrotation Yrotation Xrotation
		JOINT joint_19
		{
			OFFSET -13.973000 7.996000 -438.963010
			CHANNELS 3 Zrotation Yrotation Xrotation
			JOINT joint_20
			{
				OFFSET -44.294000 5.716000 -463.813970
				CHANNELS 3 Zrotation Yrotation Xrotation
				JOINT joint_21
				{
					OFFSET 178.505000 -4.689000 -85.139000
					CHANNELS 3 Zrotation Yrotation Xrotation
					End Site
					{
						OFFSET 0.000000 0.000000 0.000000
					}
				}
			}
		}
	}
}
MOTION
Frames: 6
Frame Time: 0.016667
-3406.492188 904.576599 1127.753052 3.303120 -4.305619 0.245371 -0.883147 8.712547 1.438360 -0.993215 -1.738493 -0.354171 -0.918154 1.661723 0.170412 0.022026 1.217967 -0.095178 0.000000 0.000000 0.000000 -2.429790 -1.447894 1.880903 0.064636 -2.126858 -2.034106 1.765018 -9.721389 3.415727 0.000000 0.000000 0.000000 -2.201235 -2.228221 -0.673254 -0.770012 -1.931762 0.540304 -2.217070 -8.174918 -4.561325 0.000000 0.000000 0.000000 -3.967364 2.961937 0.025876 -3.788579 -0.343859 -0.971126 -3.754751 -0.191229 -1.770662 0.000000 0.000000 0.000000 3.376545 1.969215 0.096208 3.320216 -0.956280 0.337421 3.238678 1.564451 1.582617 0.000000 0.000000 0.000000 
-3406.003662 904.598999 1127.876953 3.301843 -4.278341 0.232401 -0.867264 8.894172 1.460767 -0.976819 -1.725074 -0.359441 -0.902068 1.645846 0.173875 0.019744 1.098089 -0.083670 0.000000 0.000000 0.000000 -2.385233 -0.669054 1.657045 -0.031189 -1.298902 -1.890731 2.420496 -13.378198 4.753123 0.000000 0.000000 0.000000 -2.328521 -1.908110 -0.722938 -0.767939 -1.587119 0.541594 -2.471807 -9.538318 -4.717806 0.000000 0.000000 0.000000 -3.995040 2.951360 0.043013 -3.816754 -0.325587 -0.978181 -3.779950 -0.236551 -1.785559 0.000000 0.000000 0.000000 3.437770 1.917630 0.109912 3.385348 -0.856195 0.305662 3.295772 1.530984 1.609202 0.000000 0.000000 0.000000 
-3405.526123 904.611633 1127.962036 3.302249 -4.259921 0.208745 -0.858121 9.069209 1.530039 -0.968624 -1.720610 -0.382020 -0.893007 1.637016 0.189382 0.022304 0.986249 -0.089633 0.000000 0.000000 0.000000 -2.426650 0.260015 1.221624 -0.159551 -0.307255 -1.640634 3.288131 -18.746905 6.246468 0.000000 0.000000 0.000000 -2.364891 -1.362994 -0.603786 -0.773615 -1.036218 0.575988 -3.044409 -12.298732 -5.564312 0.000000 0.000000 0.000000 -4.034622 2.929112 0.061413 -3.860202 -0.248859 -0.979658 -3.812819 -0.385535 -1.810987 0.000000 0.000000 0.000000 3.502431 1.856589 0.136982 3.455183 -0.707821 0.276615 3.356209 1.422093 1.635391 0.000000 0.000000 0.000000 
-3405.189453 904.594360 1127.901978 3.309148 -4.256293 0.167132 -0.873872 9.192150 1.709566 -0.989290 -1.751228 -0.441387 -0.909840 1.660322 0.228811 0.041498 0.889341 -0.156381 0.000000 0.000000 0.000000 -2.568402 1.337875 0.645117 -0.337757 0.830929 -1.445603 4.442519 -26.803132 7.726603 0.000000 0.000000 0.000000 -2.203009 -0.467767 -0.401912 -0.698283 -0.131103 0.975375 -4.126175 -17.512201 -7.783200 0.000000 0.000000 0.000000 -4.094426 2.885704 0.080986 -3.929080 -0.083481 -0.974108 -3.859361 -0.699302 -1.853822 0.000000 0.000000 0.000000 3.564948 1.778079 0.184365 3.524567 -0.491283 0.257769 3.415283 1.198431 1.657857 0.000000 0.000000 0.000000 
-3404.964111 904.566406 1127.729980 3.321243 -4.265438 0.108624 -0.913216 9.291196 1.980710 -1.036906 -1.819524 -0.520456 -0.952262 1.721143 0.278431 0.079530 0.782856 -0.291507 0.000000 0.000000 0.000000 -2.730972 2.540465 0.421478 -0.585434 2.030361 -1.771440 5.778436 -37.147531 9.147628 0.000000 0.000000 0.000000 -1.911497 0.646499 -0.483729 -0.375603 1.080326 2.037551 -5.456538 -24.759012 -11.058659 0.000000 0.000000 0.000000 -4.173163 2.828170 0.103557 -4.020645 0.149246 -0.964332 -3.919647 -1.141006 -1.911623 0.000000 0.000000 0.000000 3.631835 1.683685 0.250302 3.600050 -0.214269 0.242981 3.479218 0.883182 1.680212 0.000000 0.000000 0.000000 
-3404.497070 904.465271 1127.652954 3.331582 -4.283835 0.057185 -0.948674 9.395045 2.197025 -1.079643 -1.887500 -0.581203 -0.991679 1.782098 0.315849 0.107633 0.730116 -0.390736 0.000000 0.000000 0.000000 -2.946341 3.578762 0.299253 -0.838328 3.000848 -2.457252 6.977874 -47.391615 10.561107 0.000000 0.000000 0.000000 -1.582953 1.674796 -0.571796 0.096105 2.262714 3.199606 -6.636624 -32.480154 -14.301951 0.000000 0.000000 0.000000 -4.242941 2.757462 0.116959 -4.108509 0.470304 -0.946040 -3.967093 -1.707154 -1.971772 0.000000 0.000000 0.000000 3.672609 1.606534 0.318676 3.649098 0.088639 0.248714 3.519268 0.480974 1.688810 0.000000 0.000000 0.000000 
